<?xml version="1.0" encoding="UTF-8"?>
<!DOCTYPE svg PUBLIC "-//W3C//DTD SVG 1.1//EN" "http://www.w3.org/Graphics/SVG/1.1/DTD/svg11.dtd">
<!-- Creator: CorelDRAW 2020 (64 Bit) -->
<svg xmlns="http://www.w3.org/2000/svg" xml:space="preserve" width="40.489mm" height="24.71mm" version="1.1" style="shape-rendering:geometricPrecision; text-rendering:geometricPrecision; image-rendering:optimizeQuality; fill-rule:evenodd; clip-rule:evenodd"
viewBox="0 0 4049 2471"
 xmlns:xlink="http://www.w3.org/1999/xlink"
 xmlns:xodm="http://www.corel.com/coreldraw/odm/2003">
 <defs>
  <style type="text/css">
   <![CDATA[
    .fil0 {fill:#2A88F8}
   ]]>
  </style>
   <mask id="id0">
  <linearGradient id="id1" gradientUnits="userSpaceOnUse" x1="1669" y1="-20" x2="1658" y2="2620">
   <stop offset="0" style="stop-opacity:1; stop-color:white"/>
   <stop offset="0.239216" style="stop-opacity:0.501961; stop-color:white"/>
   <stop offset="1" style="stop-opacity:0; stop-color:white"/>
  </linearGradient>
    <rect style="fill:url(#id1)" x="-11" y="-3" width="4056" height="2479"/>
   </mask>
 </defs>
 <g id="Camada_x0020_1">
  <metadata id="CorelCorpID_0Corel-Layer"/>
  <path class="fil0" style="mask:url(#id0)" d="M3417 316c-4,198 136,291 136,291 0,0 147,-107 151,-300 4,-193 -157,-306 -157,-306 0,0 -126,118 -130,315zm-265 470c58,184 229,245 229,245 0,0 109,-130 50,-318 -60,-188 -213,-265 -213,-265 0,0 -123,155 -65,338zm578 -92c-113,162 -48,318 -48,318 0,0 181,-8 291,-166 110,-158 39,-343 39,-343 0,0 -169,28 -282,190zm-422 539c34,195 -90,309 -90,309 0,0 -161,-83 -195,-272 -33,-190 109,-327 109,-327 0,0 142,96 176,290zm-284 340c-16,-197 -148,-306 -148,-306 0,0 -155,123 -139,316 16,192 168,290 168,290 0,0 135,-102 119,-299zm-527 606c0,0 -118,-138 -78,-326 40,-189 224,-262 224,-262 0,0 95,143 54,336 -41,194 -199,252 -199,252zm1080 -772c0,0 -16,-169 139,-290 155,-122 325,-98 325,-98 0,0 14,198 -137,316 -152,119 -327,72 -327,72zm-37 118c-178,84 -200,253 -200,253 0,0 161,84 334,2 174,-82 204,-278 204,-278 0,0 -160,-61 -338,23zm-484 535c0,0 71,-154 266,-180 195,-26 329,81 329,81 0,0 -87,178 -278,203 -190,26 -318,-104 -318,-104zm195 236c0,0 -121,-122 -317,-120 -197,2 -285,147 -285,147 0,0 111,144 303,142 192,-3 300,-169 300,-169zm253 -1583l92 -18c2,10 181,1016 -1266,1712l-40 -85c1377,-662 1221,-1570 1214,-1608zm-3201 -10c113,162 48,318 48,318 0,0 -181,-8 -291,-166 -110,-158 -39,-343 -39,-343 0,0 169,28 282,190zm349 336c0,0 171,-61 229,-244 58,-184 -65,-338 -65,-338 0,0 -153,76 -213,265 -59,188 50,318 50,318zm164 512c0,0 -125,-114 -90,-309 34,-195 176,-290 176,-290 0,0 142,137 109,327 -34,190 -195,272 -195,272zm341 -275c0,0 -132,109 -148,306 -16,197 119,299 119,299 0,0 153,-98 168,-290 16,-192 -139,-316 -139,-316zm457 586c40,189 -78,326 -78,326 0,0 -158,-59 -199,-252 -41,-194 54,-336 54,-336 0,0 183,74 224,262zm-1134 -1246c0,0 140,-93 136,-291 -4,-198 -130,-315 -130,-315 0,0 -161,113 -157,306 4,193 151,300 151,300zm-163 510c155,122 139,290 139,290 0,0 -175,46 -327,-72 -151,-119 -137,-316 -137,-316 0,0 170,-23 325,98zm375 661c0,0 -21,-168 -200,-253 -178,-84 -338,-23 -338,-23 0,0 30,196 204,278 174,82 334,-2 334,-2zm19 102c195,26 266,180 266,180 0,0 -127,129 -318,104 -190,-25 -278,-203 -278,-203 0,0 134,-107 329,-81zm388 296c-197,-2 -317,120 -317,120 0,0 108,166 300,169 192,2 303,-142 303,-142 0,0 -88,-144 -285,-147zm-663 -1482l92 18c-7,38 -163,946 1214,1608l-40 85c-1446,-696 -1268,-1701 -1266,-1712z"/>
 </g>
</svg>
